<svg width="176" height="176" viewBox="0 0 176 176" fill="none" xmlns="http://www.w3.org/2000/svg">
<g clip-path="url(#clip0_38_273)">
<path d="M87.87 150.744C122.446 150.744 150.475 122.715 150.475 88.1396C150.475 53.564 122.446 25.5349 87.87 25.5349C53.2944 25.5349 25.2653 53.564 25.2653 88.1396C25.2653 122.715 53.2944 150.744 87.87 150.744Z" fill="#C4C4C4"/>
<path d="M87.87 155.289C74.5871 155.289 61.6025 151.35 50.5588 143.969C39.5151 136.588 30.9084 126.098 25.8275 113.825C20.7465 101.553 19.4195 88.0487 22.0144 75.0217C24.6093 61.9947 31.0094 50.0299 40.4053 40.6408C49.8011 31.2517 61.7705 24.8601 74.7994 22.2746C87.8282 19.6891 101.331 21.0257 113.6 26.1155C125.869 31.2052 136.353 39.8194 143.726 50.8684C151.099 61.9174 155.029 74.9048 155.019 88.1878C154.984 105.981 147.896 123.036 135.31 135.613C122.723 148.191 105.664 155.266 87.87 155.289ZM87.87 21.9531C74.7816 21.9531 61.987 25.8336 51.1038 33.1042C40.2205 40.3747 31.7372 50.7088 26.7262 62.8C21.7153 74.8912 20.4018 88.1967 22.9517 101.034C25.5016 113.872 31.8005 125.665 41.0521 134.924C50.3036 144.182 62.0924 150.489 74.9282 153.049C87.7639 155.608 101.07 154.304 113.165 149.302C125.26 144.3 135.6 135.824 142.879 124.946C150.157 114.068 154.047 101.276 154.057 88.1878C154.049 70.6319 147.075 53.7966 134.665 41.3782C122.256 28.9598 105.426 21.9735 87.87 21.9531Z" fill="black"/>
<path d="M67.8523 168.105C47.0528 162.877 29.1052 149.759 17.8111 131.527C6.5171 113.296 2.76391 91.3837 7.34662 70.4328L12.0454 71.463C10.8544 76.9355 10.254 82.5199 10.2544 88.1204C10.2212 105.431 15.9878 122.253 26.6338 135.903C37.2797 149.552 52.1913 159.242 68.9885 163.425L67.8523 168.105Z" fill="#930000"/>
<path d="M175.875 92.9249L169.135 92.559C169.221 91.0955 169.26 89.6127 169.26 88.1395C169.325 68.8641 162.521 50.196 150.07 35.4821C137.618 20.7683 120.332 10.9711 101.311 7.84714C96.856 7.10932 92.3475 6.73899 87.8314 6.73987V-0.000109834C99.4134 -0.0051725 110.883 2.27249 121.584 6.70267C132.285 11.1328 142.008 17.6287 150.197 25.8188C158.387 34.0089 164.881 43.7327 169.31 54.4344C173.739 65.136 176.016 76.6057 176.01 88.1876C176.01 89.7282 175.961 91.3362 175.875 92.9249Z" fill="#C4C4C4"/>
<path d="M24.6778 128.627C15.6183 114.413 11.6039 97.5642 13.2806 80.7919C14.9573 64.0195 22.2275 48.2988 33.9215 36.1591C45.6155 24.0194 61.0534 16.1665 77.7514 13.8639C94.4493 11.5613 111.436 14.9428 125.98 23.4645L124.054 26.7768C110.255 18.6822 94.1326 15.4673 78.284 17.6495C62.4353 19.8318 47.7823 27.2844 36.6842 38.8072C25.5861 50.33 18.6888 65.2525 17.103 81.1719C15.5172 97.0913 19.335 113.081 27.9418 126.567L24.6778 128.627Z" fill="black"/>
<path d="M84.7262 95.0831C84.6995 93.8354 84.7566 92.762 84.8974 91.8628C85.0702 90.9629 85.3258 90.1892 85.664 89.5418C86.0016 88.8625 86.4215 88.2934 86.9238 87.8345C87.4254 87.3437 87.9921 86.8995 88.6237 86.5019C89.2874 86.1036 90.015 85.704 90.8066 85.303C91.5975 84.87 92.3231 84.3744 92.9833 83.8162C93.6749 83.2252 94.2357 82.5091 94.6658 81.6677C95.096 80.8263 95.2977 79.7818 95.271 78.5341C95.2464 77.3823 95.0169 76.379 94.5825 75.5241C94.1802 74.6685 93.6369 73.9599 92.9528 73.3984C92.3006 72.8362 91.5399 72.4364 90.6706 72.1989C89.8327 71.9288 88.9658 71.8032 88.07 71.8224C86.2464 71.8614 84.609 72.3765 83.1579 73.3677C81.7067 74.3589 80.6296 75.6302 79.9266 77.1816L78.1765 76.1628C78.5712 75.1621 79.1122 74.2703 79.7997 73.4875C80.5191 72.7039 81.3052 72.047 82.1581 71.5166C83.0423 70.9536 83.9775 70.5335 84.9638 70.2564C85.9814 69.9466 87.0021 69.7807 88.0259 69.7589C89.2096 69.7336 90.3495 69.9013 91.4454 70.2619C92.5734 70.6219 93.5774 71.1766 94.4576 71.9259C95.3372 72.6433 96.0452 73.5724 96.5817 74.7132C97.1175 75.822 97.4015 77.1282 97.4336 78.6319C97.4623 79.9756 97.2786 81.1158 96.8826 82.0524C96.5185 82.9884 96.0073 83.7835 95.3492 84.4378C94.723 85.0913 93.9991 85.6669 93.1776 86.1645C92.3553 86.6302 91.5324 87.0639 90.7088 87.4656C90.0438 87.7999 89.4591 88.1484 88.9547 88.5113C88.4817 88.8415 88.075 89.2823 87.7347 89.8337C87.4264 90.3844 87.1852 91.0777 87.011 91.9136C86.8688 92.7488 86.811 93.7903 86.8377 95.038L84.7262 95.0831ZM84.9721 104.344L84.8716 99.6411L86.9831 99.596L87.0836 104.299L84.9721 104.344Z" fill="white"/>
</g>
<defs>
<clipPath id="clip0_38_273">
<rect width="176" height="176" fill="white"/>
</clipPath>
</defs>
</svg>
