<svg width="176" height="176" viewBox="0 0 176 176" fill="none" xmlns="http://www.w3.org/2000/svg">
<g clip-path="url(#clip0_5_275)">
<path d="M87.87 150.744C122.446 150.744 150.475 122.715 150.475 88.1396C150.475 53.564 122.446 25.5349 87.87 25.5349C53.2944 25.5349 25.2653 53.564 25.2653 88.1396C25.2653 122.715 53.2944 150.744 87.87 150.744Z" fill="#C4C4C4"/>
<path d="M87.87 155.289C74.5871 155.289 61.6025 151.35 50.5588 143.969C39.5151 136.588 30.9084 126.098 25.8275 113.825C20.7465 101.553 19.4195 88.0487 22.0144 75.0217C24.6093 61.9947 31.0094 50.0299 40.4053 40.6408C49.8011 31.2517 61.7705 24.8601 74.7994 22.2746C87.8282 19.6891 101.331 21.0257 113.6 26.1155C125.869 31.2052 136.353 39.8194 143.726 50.8684C151.099 61.9174 155.029 74.9048 155.019 88.1878C154.984 105.981 147.896 123.036 135.31 135.613C122.723 148.191 105.664 155.266 87.87 155.289ZM87.87 21.9531C74.7816 21.9531 61.987 25.8336 51.1038 33.1042C40.2205 40.3747 31.7372 50.7088 26.7262 62.8C21.7153 74.8912 20.4018 88.1967 22.9517 101.034C25.5016 113.872 31.8005 125.665 41.0521 134.924C50.3036 144.182 62.0924 150.489 74.9282 153.049C87.7639 155.608 101.07 154.304 113.165 149.302C125.26 144.3 135.6 135.824 142.879 124.946C150.157 114.068 154.047 101.276 154.057 88.1878C154.049 70.6319 147.075 53.7966 134.665 41.3782C122.256 28.9598 105.426 21.9735 87.87 21.9531Z" fill="black"/>
<path d="M67.8523 168.105C47.0528 162.878 29.1052 149.759 17.8111 131.527C6.5171 113.296 2.76391 91.3837 7.34662 70.4328L12.0454 71.4631C10.8544 76.9355 10.254 82.5199 10.2544 88.1204C10.2212 105.431 15.9878 122.253 26.6338 135.903C37.2797 149.552 52.1913 159.242 68.9885 163.425L67.8523 168.105Z" fill="#930000"/>
<path d="M175.875 92.9249L169.135 92.559C169.221 91.0955 169.26 89.6127 169.26 88.1395C169.325 68.8641 162.521 50.196 150.07 35.4821C137.618 20.7683 120.332 10.9711 101.311 7.84714C96.856 7.10932 92.3475 6.73898 87.8314 6.73986V-0.000113649C99.4134 -0.00517631 110.883 2.27249 121.584 6.70266C132.285 11.1328 142.008 17.6287 150.197 25.8188C158.387 34.0089 164.881 43.7327 169.31 54.4344C173.739 65.136 176.016 76.6057 176.01 88.1876C176.01 89.7282 175.961 91.3362 175.875 92.9249Z" fill="#C4C4C4"/>
<path d="M24.6778 128.627C15.6183 114.413 11.6039 97.5642 13.2806 80.7919C14.9573 64.0195 22.2275 48.2988 33.9215 36.1591C45.6155 24.0194 61.0534 16.1665 77.7514 13.8639C94.4493 11.5613 111.436 14.9428 125.98 23.4645L124.054 26.7768C110.255 18.6822 94.1326 15.4673 78.284 17.6495C62.4353 19.8318 47.7823 27.2844 36.6842 38.8072C25.5861 50.33 18.6888 65.2525 17.103 81.1719C15.5172 97.0913 19.335 113.081 27.9418 126.567L24.6778 128.627Z" fill="black"/>
<path d="M44.9949 73.984C45.3256 73.536 45.7469 73.1893 46.2589 72.944C46.7816 72.688 47.4003 72.56 48.1149 72.56C49.1496 72.56 49.9496 72.7893 50.5149 73.248C51.0909 73.7067 51.3789 74.368 51.3789 75.232C51.3789 75.8827 51.2136 76.4373 50.8829 76.896C50.5629 77.344 50.0883 77.6427 49.4589 77.792C50.2269 77.8987 50.8243 78.2133 51.2509 78.736C51.6776 79.248 51.8909 79.888 51.8909 80.656C51.8909 81.1573 51.7949 81.616 51.6029 82.032C51.4109 82.448 51.1443 82.8107 50.8029 83.12C50.4723 83.4187 50.0669 83.6533 49.5869 83.824C49.1176 83.9947 48.6056 84.08 48.0509 84.08C47.2829 84.08 46.5949 83.92 45.9869 83.6C45.3789 83.2693 44.9203 82.8267 44.6109 82.272L45.5069 81.6C45.7523 82.048 46.0989 82.4053 46.5469 82.672C46.9949 82.928 47.5176 83.056 48.1149 83.056C48.4989 83.056 48.8509 83.0027 49.1709 82.896C49.5016 82.7787 49.7843 82.6187 50.0189 82.416C50.2536 82.2133 50.4349 81.968 50.5629 81.68C50.7016 81.392 50.7709 81.072 50.7709 80.72C50.7709 79.9627 50.4829 79.3707 49.9069 78.944C49.3309 78.5067 48.5309 78.288 47.5069 78.288L46.7229 78.288L46.7229 77.28L47.5069 77.28C48.3923 77.28 49.0749 77.1093 49.5549 76.768C50.0456 76.416 50.2909 75.9253 50.2909 75.296C50.2909 74.7093 50.0883 74.272 49.6829 73.984C49.2883 73.6853 48.7709 73.536 48.1309 73.536C47.5976 73.536 47.1229 73.6427 46.7069 73.856C46.2909 74.0587 45.9709 74.3307 45.7469 74.672L44.9949 73.984ZM57.2956 72.64L58.2396 72.64L62.9596 84L61.7756 84L60.3036 80.448L55.1996 80.448L53.7436 84L52.5436 84L57.2956 72.64ZM60.0476 79.568L57.7596 73.952L55.4396 79.568L60.0476 79.568ZM71.1641 73.632L65.7241 73.632L65.7241 84L64.6201 84L64.6201 72.64L71.1641 72.64L71.1641 73.632ZM72.9009 84L72.9009 72.64L77.6049 72.64C78.0956 72.64 78.5436 72.7467 78.9489 72.96C79.3649 73.1627 79.7223 73.4347 80.0209 73.776C80.3196 74.1067 80.5543 74.4853 80.7249 74.912C80.8956 75.3387 80.9809 75.7707 80.9809 76.208C80.9809 76.6773 80.9009 77.1307 80.7409 77.568C80.5809 77.9947 80.3569 78.3733 80.0689 78.704C79.7809 79.0347 79.4343 79.3013 79.0289 79.504C78.6343 79.7067 78.1916 79.808 77.7009 79.808L74.0209 79.808L74.0209 84L72.9009 84ZM74.0209 78.816L77.6529 78.816C77.9836 78.816 78.2823 78.7467 78.5489 78.608C78.8263 78.4587 79.0609 78.2667 79.2529 78.032C79.4449 77.7867 79.5943 77.5093 79.7009 77.2C79.8076 76.88 79.8609 76.5493 79.8609 76.208C79.8609 75.856 79.7969 75.5253 79.6689 75.216C79.5516 74.896 79.3863 74.6187 79.1729 74.384C78.9703 74.1493 78.7249 73.968 78.4369 73.84C78.1596 73.7013 77.8663 73.632 77.5569 73.632L74.0209 73.632L74.0209 78.816ZM84.1017 84.112C83.8884 84.112 83.6697 84.0907 83.4457 84.048C83.2217 84.016 83.0244 83.952 82.8537 83.856L82.8537 82.88C83.035 82.9653 83.227 83.0293 83.4297 83.072C83.6324 83.1147 83.8297 83.136 84.0217 83.136C84.2137 83.136 84.3897 83.1093 84.5497 83.056C84.7204 82.992 84.8804 82.8907 85.0297 82.752C85.179 82.6133 85.3284 82.4267 85.4777 82.192C85.6377 81.9467 85.7977 81.6373 85.9577 81.264L81.7657 72.64L82.9497 72.64L86.4857 80.048L89.9097 72.64L91.0937 72.64L86.9817 81.328C86.7364 81.8507 86.5017 82.288 86.2777 82.64C86.0537 82.992 85.8297 83.28 85.6057 83.504C85.3817 83.7173 85.147 83.872 84.9017 83.968C84.667 84.064 84.4004 84.112 84.1017 84.112ZM92.0574 73.984C92.3881 73.536 92.8094 73.1893 93.3214 72.944C93.8441 72.688 94.4628 72.56 95.1774 72.56C96.2121 72.56 97.0121 72.7893 97.5774 73.248C98.1534 73.7067 98.4414 74.368 98.4414 75.232C98.4414 75.8827 98.2761 76.4373 97.9454 76.896C97.6254 77.344 97.1508 77.6427 96.5214 77.792C97.2894 77.8987 97.8868 78.2133 98.3134 78.736C98.7401 79.248 98.9534 79.888 98.9534 80.656C98.9534 81.1573 98.8574 81.616 98.6654 82.032C98.4734 82.448 98.2068 82.8107 97.8654 83.12C97.5348 83.4187 97.1294 83.6533 96.6494 83.824C96.1801 83.9947 95.6681 84.08 95.1134 84.08C94.3454 84.08 93.6574 83.92 93.0494 83.6C92.4414 83.2693 91.9828 82.8267 91.6734 82.272L92.5694 81.6C92.8148 82.048 93.1614 82.4053 93.6094 82.672C94.0574 82.928 94.5801 83.056 95.1774 83.056C95.5614 83.056 95.9134 83.0027 96.2334 82.896C96.5641 82.7787 96.8468 82.6187 97.0814 82.416C97.3161 82.2133 97.4974 81.968 97.6254 81.68C97.7641 81.392 97.8334 81.072 97.8334 80.72C97.8334 79.9627 97.5454 79.3707 96.9694 78.944C96.3934 78.5067 95.5934 78.288 94.5694 78.288L93.7854 78.288L93.7854 77.28L94.5694 77.28C95.4548 77.28 96.1374 77.1093 96.6174 76.768C97.1081 76.416 97.3534 75.9253 97.3534 75.296C97.3534 74.7093 97.1508 74.272 96.7454 73.984C96.3508 73.6853 95.8334 73.536 95.1934 73.536C94.6601 73.536 94.1854 73.6427 93.7694 73.856C93.3534 74.0587 93.0334 74.3307 92.8094 74.672L92.0574 73.984ZM102.208 82.32L109.248 72.64L110.176 72.64L110.176 84L109.056 84L109.056 74.48L102.128 84L101.104 84L101.104 72.64L102.208 72.64L102.208 82.32ZM121.105 73.632L117.057 73.632L117.057 84L115.937 84L115.937 73.632L111.889 73.632L111.889 72.64L121.105 72.64L121.105 73.632ZM122.823 72.64L123.927 72.64L123.927 76.976L126.615 76.976C127.17 76.976 127.671 77.056 128.119 77.216C128.578 77.3653 128.967 77.5893 129.287 77.888C129.618 78.1867 129.874 78.5547 130.055 78.992C130.237 79.4293 130.327 79.9253 130.327 80.48C130.327 81.024 130.231 81.5147 130.039 81.952C129.858 82.3893 129.602 82.7627 129.271 83.072C128.951 83.3707 128.562 83.6 128.103 83.76C127.655 83.92 127.159 84 126.615 84L122.823 84L122.823 72.64ZM123.927 83.024L126.615 83.024C127.063 83.024 127.447 82.96 127.767 82.832C128.098 82.704 128.37 82.528 128.583 82.304C128.797 82.0693 128.951 81.7973 129.047 81.488C129.154 81.1787 129.207 80.8427 129.207 80.48C129.207 80.1173 129.154 79.7813 129.047 79.472C128.951 79.1627 128.797 78.896 128.583 78.672C128.37 78.448 128.098 78.272 127.767 78.144C127.447 78.016 127.063 77.952 126.615 77.952L123.927 77.952L123.927 83.024ZM70.6189 101.976C69.8723 101.933 69.1949 101.789 68.5869 101.544C67.9896 101.299 67.4776 100.968 67.0509 100.552C66.6349 100.136 66.3096 99.64 66.0749 99.064C65.8509 98.488 65.7389 97.8373 65.7389 97.112C65.7389 96.3973 65.8509 95.752 66.0749 95.176C66.2989 94.5893 66.6189 94.0827 67.0349 93.656C67.4616 93.2293 67.9736 92.8933 68.5709 92.648C69.1789 92.392 69.8616 92.2373 70.6189 92.184L70.6189 90.648L71.7389 90.648L71.7389 92.184C72.4749 92.2373 73.1363 92.392 73.7229 92.648C74.3203 92.8933 74.8216 93.2293 75.2269 93.656C75.6429 94.0827 75.9576 94.5893 76.1709 95.176C76.3949 95.752 76.5069 96.3973 76.5069 97.112C76.5069 97.8373 76.3949 98.488 76.1709 99.064C75.9469 99.64 75.6269 100.136 75.2109 100.552C74.8056 100.968 74.3096 101.299 73.7229 101.544C73.1363 101.789 72.4749 101.933 71.7389 101.976L71.7389 103.592L70.6189 103.592L70.6189 101.976ZM71.7389 100.952C72.8803 100.856 73.7709 100.477 74.4109 99.816C75.0616 99.144 75.3869 98.2267 75.3869 97.064C75.3869 95.9013 75.0669 94.9947 74.4269 94.344C73.7976 93.6827 72.9016 93.3093 71.7389 93.224L71.7389 100.952ZM70.6189 93.224C69.4243 93.3093 68.5016 93.6827 67.8509 94.344C67.2003 94.9947 66.8749 95.9013 66.8749 97.064C66.8749 98.2373 67.2056 99.16 67.8669 99.832C68.5283 100.493 69.4456 100.867 70.6189 100.952L70.6189 93.224ZM83.0863 103.08C82.297 103.08 81.5716 102.92 80.9103 102.6C80.2596 102.269 79.6996 101.837 79.2303 101.304C78.761 100.76 78.3983 100.141 78.1423 99.448C77.8863 98.7547 77.7583 98.0453 77.7583 97.32C77.7583 96.5627 77.8916 95.8373 78.1583 95.144C78.4356 94.4507 78.8143 93.8373 79.2943 93.304C79.7743 92.7707 80.3396 92.3493 80.9903 92.04C81.641 91.72 82.345 91.56 83.1023 91.56C83.8916 91.56 84.6116 91.7307 85.2623 92.072C85.9236 92.4027 86.4836 92.84 86.9423 93.384C87.4116 93.928 87.7743 94.5467 88.0303 95.24C88.2863 95.9227 88.4143 96.6213 88.4143 97.336C88.4143 98.0933 88.2756 98.8187 87.9983 99.512C87.7316 100.205 87.3583 100.819 86.8783 101.352C86.409 101.875 85.849 102.296 85.1983 102.616C84.5476 102.925 83.8436 103.08 83.0863 103.08ZM78.8783 97.32C78.8783 97.9387 78.9796 98.536 79.1823 99.112C79.385 99.6773 79.673 100.184 80.0463 100.632C80.4196 101.069 80.8623 101.421 81.3743 101.688C81.8863 101.944 82.457 102.072 83.0863 102.072C83.7263 102.072 84.3076 101.933 84.8303 101.656C85.353 101.379 85.7956 101.016 86.1583 100.568C86.521 100.12 86.7983 99.6133 86.9903 99.048C87.193 98.4827 87.2943 97.9067 87.2943 97.32C87.2943 96.7013 87.1876 96.1093 86.9743 95.544C86.7716 94.968 86.4836 94.4613 86.1103 94.024C85.737 93.5867 85.2943 93.24 84.7823 92.984C84.2703 92.7173 83.705 92.584 83.0863 92.584C82.4463 92.584 81.865 92.7227 81.3423 93C80.8196 93.2667 80.377 93.624 80.0143 94.072C79.6516 94.52 79.369 95.0267 79.1663 95.592C78.9743 96.1573 78.8783 96.7333 78.8783 97.32ZM98.0427 92.632L93.9947 92.632L93.9947 103L92.8747 103L92.8747 92.632L88.8267 92.632L88.8267 91.64L98.0427 91.64L98.0427 92.632ZM103.789 103.08C103 103.08 102.275 102.92 101.613 102.6C100.963 102.269 100.403 101.837 99.9334 101.304C99.4641 100.76 99.1014 100.141 98.8454 99.448C98.5894 98.7547 98.4614 98.0453 98.4614 97.32C98.4614 96.5627 98.5948 95.8373 98.8614 95.144C99.1388 94.4507 99.5174 93.8373 99.9974 93.304C100.477 92.7707 101.043 92.3493 101.693 92.04C102.344 91.72 103.048 91.56 103.805 91.56C104.595 91.56 105.315 91.7307 105.965 92.072C106.627 92.4027 107.187 92.84 107.645 93.384C108.115 93.928 108.477 94.5467 108.733 95.24C108.989 95.9227 109.117 96.6213 109.117 97.336C109.117 98.0933 108.979 98.8187 108.701 99.512C108.435 100.205 108.061 100.819 107.581 101.352C107.112 101.875 106.552 102.296 105.901 102.616C105.251 102.925 104.547 103.08 103.789 103.08ZM99.5814 97.32C99.5814 97.9387 99.6828 98.536 99.8854 99.112C100.088 99.6773 100.376 100.184 100.749 100.632C101.123 101.069 101.565 101.421 102.077 101.688C102.589 101.944 103.16 102.072 103.789 102.072C104.429 102.072 105.011 101.933 105.533 101.656C106.056 101.379 106.499 101.016 106.861 100.568C107.224 100.12 107.501 99.6133 107.693 99.048C107.896 98.4827 107.997 97.9067 107.997 97.32C107.997 96.7013 107.891 96.1093 107.677 95.544C107.475 94.968 107.187 94.4613 106.813 94.024C106.44 93.5867 105.997 93.24 105.485 92.984C104.973 92.7173 104.408 92.584 103.789 92.584C103.149 92.584 102.568 92.7227 102.045 93C101.523 93.2667 101.08 93.624 100.717 94.072C100.355 94.52 100.072 95.0267 99.8694 95.592C99.6774 96.1573 99.5814 96.7333 99.5814 97.32Z" fill="white"/>
</g>
<defs>
<clipPath id="clip0_5_275">
<rect width="176" height="176" fill="white"/>
</clipPath>
</defs>
</svg>
